<svg width="16.666672" height="15.000000" viewBox="0 0 16.6667 15" fill="none" xmlns="http://www.w3.org/2000/svg" xmlns:xlink="http://www.w3.org/1999/xlink">
	<desc>
			Created with Pixso.
	</desc>
	<g opacity="0.000100">
		<rect width="16.666668" height="15.000000" fill="#000000"/>
	</g>
	<mask id="path-1-inside-1" fill="white">
		<path d="M9.45546 8.14725L14.0206 12.5297C14.0768 12.5837 14.0768 12.6714 14.0206 12.7254L13.2542 13.4595C13.1979 13.5135 13.1065 13.5135 13.0503 13.4595L8.48514 9.07874C7.56929 9.75711 6.45129 10.125 5.27354 10.125C3.86375 10.125 2.54008 9.59851 1.54515 8.64169C0.550201 7.68655 0 6.41418 0 5.0625C0 3.70914 0.548447 2.43845 1.54515 1.48331C2.54008 0.528198 3.86551 0 5.27354 0C6.68158 0 8.00699 0.526489 9.00194 1.48331C9.99687 2.44012 10.5471 3.70914 10.5471 5.0625C10.5471 6.19312 10.1639 7.26807 9.45546 8.14725L9.45546 8.14725M5.27339 8.8425C6.32458 8.8425 7.3125 8.44931 8.05783 7.7355C8.80139 7.0217 9.21097 6.07162 9.21097 5.0625C9.21097 4.05338 8.80139 3.10501 8.05783 2.3895C7.31425 1.67401 6.32458 1.2825 5.27339 1.2825C4.2222 1.2825 3.2343 1.67569 2.48897 2.3895C1.74539 3.1033 1.33582 4.05338 1.33582 5.0625C1.33582 6.07162 1.74539 7.01999 2.48897 7.7355C3.2343 8.44931 4.2222 8.8425 5.27339 8.8425L5.27339 8.8425Z" fill-rule="evenodd" fill-opacity="0.000000"/>
	</mask>
	<path d="M9.45546 8.14725L14.0206 12.5297C14.0768 12.5837 14.0768 12.6714 14.0206 12.7254L13.2542 13.4595C13.1979 13.5135 13.1065 13.5135 13.0503 13.4595L8.48514 9.07874C7.56929 9.75711 6.45129 10.125 5.27354 10.125C3.86375 10.125 2.54008 9.59851 1.54515 8.64169C0.550201 7.68655 0 6.41418 0 5.0625C0 3.70914 0.548447 2.43845 1.54515 1.48331C2.54008 0.528198 3.86551 0 5.27354 0C6.68158 0 8.00699 0.526489 9.00194 1.48331C9.99687 2.44012 10.5471 3.70914 10.5471 5.0625C10.5471 6.19312 10.1639 7.26807 9.45546 8.14725L9.45546 8.14725M5.27339 8.8425C6.32458 8.8425 7.3125 8.44931 8.05783 7.7355C8.80139 7.0217 9.21097 6.07162 9.21097 5.0625C9.21097 4.05338 8.80139 3.10501 8.05783 2.3895C7.31425 1.67401 6.32458 1.2825 5.27339 1.2825C4.2222 1.2825 3.2343 1.67569 2.48897 2.3895C1.74539 3.1033 1.33582 4.05338 1.33582 5.0625C1.33582 6.07162 1.74539 7.01999 2.48897 7.7355C3.2343 8.44931 4.2222 8.8425 5.27339 8.8425L5.27339 8.8425Z" fill-rule="evenodd" fill="#000000" fill-opacity="1.000000"/>
	<defs/>
</svg>
