<svg width="16.000000" height="16.000000" viewBox="0 0 16 16" fill="none" xmlns="http://www.w3.org/2000/svg" xmlns:xlink="http://www.w3.org/1999/xlink">
	<desc>
			Created with Pixso.
	</desc>
	<path d="M8 16L6.84003 14.8491C2.71997 10.7771 0 8.09155 0 4.79565C0 2.11008 1.93597 0 4.40002 0C5.79199 0 7.12799 0.706268 8 1.82236C8.87201 0.706268 10.208 0 11.6 0C14.064 0 16 2.11008 16 4.79565C16 8.09155 13.28 10.7771 9.15997 14.8578L8 16ZM8.00269 14.5932L7.54468 14.1388L7.54327 14.1375L7.53821 14.1324L7.53693 14.1312L7.53314 14.1274Q5.57416 12.1913 4.75146 11.3274Q3.43896 9.94913 2.67249 8.92712Q1.81769 7.78741 1.41437 6.8031Q1.00049 5.79291 1.00049 4.79565Q1.00049 3.99005 1.27551 3.27063Q1.53735 2.58582 2.01324 2.06714Q2.48035 1.55798 3.08667 1.28262Q3.70795 1.00049 4.40002 1.00049Q5.19196 1.00049 5.93884 1.38309Q6.68634 1.76602 7.21161 2.43832L8 3.44739L8.78839 2.43832Q9.31366 1.76602 10.0612 1.38309Q10.808 1.00049 11.6 1.00049Q12.2921 1.00049 12.9133 1.28262Q13.5197 1.55798 13.9868 2.06714Q14.4626 2.58582 14.7245 3.27063Q14.9995 3.99005 14.9995 4.79565Q14.9995 5.7912 14.587 6.79977Q14.1851 7.78253 13.3332 8.92065Q12.5692 9.94131 11.2608 11.3181Q10.4406 12.1812 8.48755 14.1156L8.47961 14.1234L8.47766 14.1254L8.47668 14.1264L8.47571 14.1273L8.47174 14.1313L8.46979 14.1332L8.46875 14.1342L8.46777 14.1352L8.46387 14.1391L8.46283 14.1401L8.46185 14.1411L8.4599 14.143L8.45795 14.145L8.45593 14.1469L8.00269 14.5932Z" fill-rule="evenodd" fill="#444444"/>
	<defs/>
</svg>
